<svg width="1400" height="900" xmlns="http://www.w3.org/2000/svg">
  <!-- Фон GitHub -->
  <rect width="1400" height="900" fill="#0d1117"/>
  
  <!-- Верхня панель -->
  <rect width="1400" height="60" fill="#161b22"/>
  <text x="20" y="40" fill="#c9d1d9" font-family="Arial, sans-serif" font-size="18" font-weight="bold">SmartNotes Project</text>
  <text x="250" y="40" fill="#8b949e" font-family="Arial, sans-serif" font-size="14">Issues &amp; Pull Requests</text>
  
  <!-- Заголовки колонок -->
  <rect x="20" y="80" width="320" height="40" fill="#21262d" rx="6"/>
  <text x="30" y="105" fill="#c9d1d9" font-family="Arial, sans-serif" font-size="14" font-weight="bold">To do</text>
  <text x="100" y="105" fill="#8b949e" font-family="Arial, sans-serif" font-size="12">2</text>
  
  <rect x="360" y="80" width="320" height="40" fill="#21262d" rx="6"/>
  <text x="370" y="105" fill="#c9d1d9" font-family="Arial, sans-serif" font-size="14" font-weight="bold">In Progress</text>
  <text x="480" y="105" fill="#8b949e" font-family="Arial, sans-serif" font-size="12">1</text>
  
  <rect x="700" y="80" width="320" height="40" fill="#21262d" rx="6"/>
  <text x="710" y="105" fill="#c9d1d9" font-family="Arial, sans-serif" font-size="14" font-weight="bold">In Review</text>
  <text x="800" y="105" fill="#8b949e" font-family="Arial, sans-serif" font-size="12">0</text>
  
  <rect x="1040" y="80" width="320" height="40" fill="#21262d" rx="6"/>
  <text x="1050" y="105" fill="#c9d1d9" font-family="Arial, sans-serif" font-size="14" font-weight="bold">Done</text>
  <text x="1100" y="105" fill="#8b949e" font-family="Arial, sans-serif" font-size="12">0</text>
  
  <!-- Картки в To do -->
  <rect x="20" y="140" width="320" height="120" fill="#161b22" rx="6" stroke="#30363d" stroke-width="1"/>
  <text x="30" y="165" fill="#c9d1d9" font-family="Arial, sans-serif" font-size="13" font-weight="bold">#15 Add export to PDF feature</text>
  <text x="30" y="185" fill="#8b949e" font-family="Arial, sans-serif" font-size="11">Feature request</text>
  <rect x="30" y="195" width="60" height="20" fill="#1f2328" rx="3"/>
  <text x="35" y="208" fill="#7c3aed" font-family="Arial, sans-serif" font-size="10">enhancement</text>
  
  <rect x="20" y="280" width="320" height="120" fill="#161b22" rx="6" stroke="#30363d" stroke-width="1"/>
  <text x="30" y="305" fill="#c9d1d9" font-family="Arial, sans-serif" font-size="13" font-weight="bold">#18 Improve search performance</text>
  <text x="30" y="325" fill="#8b949e" font-family="Arial, sans-serif" font-size="11">Optimization</text>
  <rect x="30" y="335" width="50" height="20" fill="#1f2328" rx="3"/>
  <text x="35" y="348" fill="#fb8500" font-family="Arial, sans-serif" font-size="10">medium</text>
  
  <!-- Картка в In Progress (наш дефект) -->
  <rect x="360" y="140" width="320" height="180" fill="#1c2128" rx="6" stroke="#d1242f" stroke-width="2"/>
  <text x="370" y="165" fill="#f85149" font-family="Arial, sans-serif" font-size="13" font-weight="bold">🐛 #BUG-001</text>
  <text x="370" y="185" fill="#c9d1d9" font-family="Arial, sans-serif" font-size="13" font-weight="bold">Search module does not support Cyrillic</text>
  <text x="370" y="205" fill="#8b949e" font-family="Arial, sans-serif" font-size="11">Search fails for Ukrainian text. Unicode normalization needed.</text>
  <rect x="370" y="215" width="50" height="20" fill="#490202" rx="3"/>
  <text x="375" y="228" fill="#f85149" font-family="Arial, sans-serif" font-size="10" font-weight="bold">high</text>
  <rect x="430" y="215" width="80" height="20" fill="#1f2328" rx="3"/>
  <text x="435" y="228" fill="#7c3aed" font-family="Arial, sans-serif" font-size="10">bug</text>
  <text x="370" y="255" fill="#8b949e" font-family="Arial, sans-serif" font-size="10">Assignee: Developer</text>
  <text x="370" y="275" fill="#8b949e" font-family="Arial, sans-serif" font-size="10">Module: SearchService (SNF_03)</text>
  <text x="370" y="295" fill="#8b949e" font-family="Arial, sans-serif" font-size="10">Status: In Progress</text>
  
  <!-- Порожні колонки -->
  <text x="710" y="200" fill="#6e7681" font-family="Arial, sans-serif" font-size="12" font-style="italic">No items</text>
  <text x="1050" y="200" fill="#6e7681" font-family="Arial, sans-serif" font-size="12" font-style="italic">No items</text>
  
  <!-- Легенда -->
  <rect x="20" y="800" width="1360" height="80" fill="#161b22" rx="6"/>
  <text x="30" y="825" fill="#c9d1d9" font-family="Arial, sans-serif" font-size="12" font-weight="bold">Legend:</text>
  <rect x="30" y="835" width="20" height="20" fill="#490202" rx="3"/>
  <text x="55" y="850" fill="#8b949e" font-family="Arial, sans-serif" font-size="11">High Priority</text>
  <rect x="150" y="835" width="20" height="20" fill="#fb8500" rx="3"/>
  <text x="175" y="850" fill="#8b949e" font-family="Arial, sans-serif" font-size="11">Medium Priority</text>
  <rect x="300" y="835" width="20" height="20" fill="#238636" rx="3"/>
  <text x="325" y="850" fill="#8b949e" font-family="Arial, sans-serif" font-size="11">Low Priority</text>
  <rect x="450" y="835" width="20" height="20" fill="#7c3aed" rx="3"/>
  <text x="475" y="850" fill="#8b949e" font-family="Arial, sans-serif" font-size="11">Bug</text>
  <rect x="550" y="835" width="20" height="20" fill="#0969da" rx="3"/>
  <text x="575" y="850" fill="#8b949e" font-family="Arial, sans-serif" font-size="11">Enhancement</text>
</svg>
