<svg width="1200" height="800" xmlns="http://www.w3.org/2000/svg">
  <!-- Фон IDE -->
  <rect width="1200" height="800" fill="#1e1e1e"/>
  
  <!-- Панель інструментів -->
  <rect width="1200" height="40" fill="#2d2d30"/>
  <text x="20" y="25" fill="#cccccc" font-family="Consolas, monospace" font-size="12">File Edit View Debug Run Terminal Help</text>
  
  <!-- Бокова панель змінних -->
  <rect x="0" y="40" width="300" height="760" fill="#252526"/>
  <rect x="300" y="40" width="2" height="760" fill="#3e3e42"/>
  
  <!-- Вкладки -->
  <rect x="302" y="40" width="898" height="30" fill="#2d2d30"/>
  <rect x="302" y="40" width="200" height="30" fill="#1e1e1e"/>
  <text x="310" y="60" fill="#cccccc" font-family="Consolas, monospace" font-size="11">SearchService.js</text>
  
  <!-- Код -->
  <rect x="302" y="70" width="898" height="400" fill="#1e1e1e"/>
  
  <!-- Виділений рядок -->
  <rect x="320" y="88" width="880" height="20" fill="#264f78"/>
  
  <text x="320" y="100" fill="#d4d4d4" font-family="Consolas, monospace" font-size="13">function</text>
  <text x="400" y="100" fill="#4ec9b0" font-family="Consolas, monospace" font-size="13">searchNotes</text>
  <text x="510" y="100" fill="#d4d4d4" font-family="Consolas, monospace" font-size="13">(query) {</text>
  
  <!-- Панель змінних -->
  <rect x="302" y="470" width="898" height="330" fill="#252526"/>
  <text x="320" y="495" fill="#cccccc" font-family="Consolas, monospace" font-size="12" font-weight="bold">VARIABLES</text>
  <line x1="302" y1="505" x2="1200" y2="505" stroke="#3e3e42" stroke-width="1"/>
  
  <!-- Змінні -->
  <text x="320" y="535" fill="#9cdcfe" font-family="Consolas, monospace" font-size="12">query:</text>
  <text x="380" y="535" fill="#ce9178" font-family="Consolas, monospace" font-size="12">"зустріч"</text>
  <text x="480" y="535" fill="#808080" font-family="Consolas, monospace" font-size="11">string</text>
  
  <text x="320" y="565" fill="#9cdcfe" font-family="Consolas, monospace" font-size="12">normalizedQuery:</text>
  <text x="450" y="565" fill="#808080" font-family="Consolas, monospace" font-size="11">undefined</text>
  
  <text x="320" y="595" fill="#9cdcfe" font-family="Consolas, monospace" font-size="12">results:</text>
  <text x="390" y="595" fill="#808080" font-family="Consolas, monospace" font-size="11">undefined</text>
  
  <!-- Call Stack -->
  <text x="320" y="640" fill="#cccccc" font-family="Consolas, monospace" font-size="12" font-weight="bold">CALL STACK</text>
  <line x1="302" y1="650" x2="1200" y2="650" stroke="#3e3e42" stroke-width="1"/>
  <text x="320" y="675" fill="#4ec9b0" font-family="Consolas, monospace" font-size="11">searchNotes (SearchService.js:3)</text>
  <text x="320" y="695" fill="#cccccc" font-family="Consolas, monospace" font-size="11">handleSearch (SearchController.js:45)</text>
  
  <!-- Debug Console -->
  <text x="320" y="730" fill="#cccccc" font-family="Consolas, monospace" font-size="12" font-weight="bold">DEBUG CONSOLE</text>
  <line x1="302" y1="740" x2="1200" y2="740" stroke="#3e3e42" stroke-width="1"/>
  <text x="320" y="765" fill="#4ec9b0" font-family="Consolas, monospace" font-size="11">Step 1: Checking input parameters</text>
  <text x="320" y="785" fill="#cccccc" font-family="Consolas, monospace" font-size="11">query = "зустріч" (Ukrainian text)</text>
</svg>
